<?xml version="1.0" encoding="utf-8"?>
<svg xmlns="http://www.w3.org/2000/svg" xmlns:xlink="http://www.w3.org/1999/xlink" xml:space="preserve" width="1006.25" height="1006.25" viewBox="0 0 1006.25 1006.25"><g transform="scale(41.927083333333)" fill="#000000"><path class="cls-1" d="M12,1A11,11,0,1,1,1,12,11,11,0,0,1,12,1m0-1A12,12,0,1,0,24,12,12,12,0,0,0,12,0Z"/></g><g fill="#000000">
<g transform="translate(583.625,215.625) scale(3.9483333333333)"><rect width="6" height="6"/></g>
<g transform="translate(422.625,238.625) scale(3.9483333333333)"><rect width="6" height="6"/></g>
<g transform="translate(514.625,238.625) scale(3.9483333333333)"><rect width="6" height="6"/></g>
<g transform="translate(560.625,238.625) scale(3.9483333333333)"><rect width="6" height="6"/></g>
<g transform="translate(399.625,261.625) scale(3.9483333333333)"><rect width="6" height="6"/></g>
<g transform="translate(468.625,261.625) scale(3.9483333333333)"><rect width="6" height="6"/></g>
<g transform="translate(491.625,261.625) scale(3.9483333333333)"><rect width="6" height="6"/></g>
<g transform="translate(537.625,261.625) scale(3.9483333333333)"><rect width="6" height="6"/></g>
<g transform="translate(583.625,261.625) scale(3.9483333333333)"><rect width="6" height="6"/></g>
<g transform="translate(399.625,284.625) scale(3.9483333333333)"><rect width="6" height="6"/></g>
<g transform="translate(422.625,284.625) scale(3.9483333333333)"><rect width="6" height="6"/></g>
<g transform="translate(491.625,284.625) scale(3.9483333333333)"><rect width="6" height="6"/></g>
<g transform="translate(514.625,284.625) scale(3.9483333333333)"><rect width="6" height="6"/></g>
<g transform="translate(537.625,284.625) scale(3.9483333333333)"><rect width="6" height="6"/></g>
<g transform="translate(399.625,307.625) scale(3.9483333333333)"><rect width="6" height="6"/></g>
<g transform="translate(468.625,307.625) scale(3.9483333333333)"><rect width="6" height="6"/></g>
<g transform="translate(514.625,307.625) scale(3.9483333333333)"><rect width="6" height="6"/></g>
<g transform="translate(399.625,330.625) scale(3.9483333333333)"><rect width="6" height="6"/></g>
<g transform="translate(422.625,330.625) scale(3.9483333333333)"><rect width="6" height="6"/></g>
<g transform="translate(514.625,330.625) scale(3.9483333333333)"><rect width="6" height="6"/></g>
<g transform="translate(537.625,330.625) scale(3.9483333333333)"><rect width="6" height="6"/></g>
<g transform="translate(560.625,330.625) scale(3.9483333333333)"><rect width="6" height="6"/></g>
<g transform="translate(399.625,353.625) scale(3.9483333333333)"><rect width="6" height="6"/></g>
<g transform="translate(445.625,353.625) scale(3.9483333333333)"><rect width="6" height="6"/></g>
<g transform="translate(491.625,353.625) scale(3.9483333333333)"><rect width="6" height="6"/></g>
<g transform="translate(537.625,353.625) scale(3.9483333333333)"><rect width="6" height="6"/></g>
<g transform="translate(583.625,353.625) scale(3.9483333333333)"><rect width="6" height="6"/></g>
<g transform="translate(399.625,376.625) scale(3.9483333333333)"><rect width="6" height="6"/></g>
<g transform="translate(422.625,376.625) scale(3.9483333333333)"><rect width="6" height="6"/></g>
<g transform="translate(445.625,376.625) scale(3.9483333333333)"><rect width="6" height="6"/></g>
<g transform="translate(537.625,376.625) scale(3.9483333333333)"><rect width="6" height="6"/></g>
<g transform="translate(560.625,376.625) scale(3.9483333333333)"><rect width="6" height="6"/></g>
<g transform="translate(583.625,376.625) scale(3.9483333333333)"><rect width="6" height="6"/></g>
<g transform="translate(215.625,399.625) scale(3.9483333333333)"><rect width="6" height="6"/></g>
<g transform="translate(261.625,399.625) scale(3.9483333333333)"><rect width="6" height="6"/></g>
<g transform="translate(284.625,399.625) scale(3.9483333333333)"><rect width="6" height="6"/></g>
<g transform="translate(307.625,399.625) scale(3.9483333333333)"><rect width="6" height="6"/></g>
<g transform="translate(330.625,399.625) scale(3.9483333333333)"><rect width="6" height="6"/></g>
<g transform="translate(353.625,399.625) scale(3.9483333333333)"><rect width="6" height="6"/></g>
<g transform="translate(422.625,399.625) scale(3.9483333333333)"><rect width="6" height="6"/></g>
<g transform="translate(491.625,399.625) scale(3.9483333333333)"><rect width="6" height="6"/></g>
<g transform="translate(514.625,399.625) scale(3.9483333333333)"><rect width="6" height="6"/></g>
<g transform="translate(537.625,399.625) scale(3.9483333333333)"><rect width="6" height="6"/></g>
<g transform="translate(560.625,399.625) scale(3.9483333333333)"><rect width="6" height="6"/></g>
<g transform="translate(583.625,399.625) scale(3.9483333333333)"><rect width="6" height="6"/></g>
<g transform="translate(629.625,399.625) scale(3.9483333333333)"><rect width="6" height="6"/></g>
<g transform="translate(652.625,399.625) scale(3.9483333333333)"><rect width="6" height="6"/></g>
<g transform="translate(675.625,399.625) scale(3.9483333333333)"><rect width="6" height="6"/></g>
<g transform="translate(698.625,399.625) scale(3.9483333333333)"><rect width="6" height="6"/></g>
<g transform="translate(721.625,399.625) scale(3.9483333333333)"><rect width="6" height="6"/></g>
<g transform="translate(215.625,422.625) scale(3.9483333333333)"><rect width="6" height="6"/></g>
<g transform="translate(238.625,422.625) scale(3.9483333333333)"><rect width="6" height="6"/></g>
<g transform="translate(307.625,422.625) scale(3.9483333333333)"><rect width="6" height="6"/></g>
<g transform="translate(330.625,422.625) scale(3.9483333333333)"><rect width="6" height="6"/></g>
<g transform="translate(376.625,422.625) scale(3.9483333333333)"><rect width="6" height="6"/></g>
<g transform="translate(399.625,422.625) scale(3.9483333333333)"><rect width="6" height="6"/></g>
<g transform="translate(445.625,422.625) scale(3.9483333333333)"><rect width="6" height="6"/></g>
<g transform="translate(491.625,422.625) scale(3.9483333333333)"><rect width="6" height="6"/></g>
<g transform="translate(514.625,422.625) scale(3.9483333333333)"><rect width="6" height="6"/></g>
<g transform="translate(583.625,422.625) scale(3.9483333333333)"><rect width="6" height="6"/></g>
<g transform="translate(606.625,422.625) scale(3.9483333333333)"><rect width="6" height="6"/></g>
<g transform="translate(652.625,422.625) scale(3.9483333333333)"><rect width="6" height="6"/></g>
<g transform="translate(744.625,422.625) scale(3.9483333333333)"><rect width="6" height="6"/></g>
<g transform="translate(215.625,445.625) scale(3.9483333333333)"><rect width="6" height="6"/></g>
<g transform="translate(353.625,445.625) scale(3.9483333333333)"><rect width="6" height="6"/></g>
<g transform="translate(422.625,445.625) scale(3.9483333333333)"><rect width="6" height="6"/></g>
<g transform="translate(468.625,445.625) scale(3.9483333333333)"><rect width="6" height="6"/></g>
<g transform="translate(491.625,445.625) scale(3.9483333333333)"><rect width="6" height="6"/></g>
<g transform="translate(537.625,445.625) scale(3.9483333333333)"><rect width="6" height="6"/></g>
<g transform="translate(560.625,445.625) scale(3.9483333333333)"><rect width="6" height="6"/></g>
<g transform="translate(583.625,445.625) scale(3.9483333333333)"><rect width="6" height="6"/></g>
<g transform="translate(629.625,445.625) scale(3.9483333333333)"><rect width="6" height="6"/></g>
<g transform="translate(652.625,445.625) scale(3.9483333333333)"><rect width="6" height="6"/></g>
<g transform="translate(698.625,445.625) scale(3.9483333333333)"><rect width="6" height="6"/></g>
<g transform="translate(744.625,445.625) scale(3.9483333333333)"><rect width="6" height="6"/></g>
<g transform="translate(767.625,445.625) scale(3.9483333333333)"><rect width="6" height="6"/></g>
<g transform="translate(238.625,468.625) scale(3.9483333333333)"><rect width="6" height="6"/></g>
<g transform="translate(261.625,468.625) scale(3.9483333333333)"><rect width="6" height="6"/></g>
<g transform="translate(284.625,468.625) scale(3.9483333333333)"><rect width="6" height="6"/></g>
<g transform="translate(307.625,468.625) scale(3.9483333333333)"><rect width="6" height="6"/></g>
<g transform="translate(376.625,468.625) scale(3.9483333333333)"><rect width="6" height="6"/></g>
<g transform="translate(422.625,468.625) scale(3.9483333333333)"><rect width="6" height="6"/></g>
<g transform="translate(468.625,468.625) scale(3.9483333333333)"><rect width="6" height="6"/></g>
<g transform="translate(537.625,468.625) scale(3.9483333333333)"><rect width="6" height="6"/></g>
<g transform="translate(560.625,468.625) scale(3.9483333333333)"><rect width="6" height="6"/></g>
<g transform="translate(583.625,468.625) scale(3.9483333333333)"><rect width="6" height="6"/></g>
<g transform="translate(767.625,468.625) scale(3.9483333333333)"><rect width="6" height="6"/></g>
<g transform="translate(215.625,491.625) scale(3.9483333333333)"><rect width="6" height="6"/></g>
<g transform="translate(238.625,491.625) scale(3.9483333333333)"><rect width="6" height="6"/></g>
<g transform="translate(330.625,491.625) scale(3.9483333333333)"><rect width="6" height="6"/></g>
<g transform="translate(353.625,491.625) scale(3.9483333333333)"><rect width="6" height="6"/></g>
<g transform="translate(376.625,491.625) scale(3.9483333333333)"><rect width="6" height="6"/></g>
<g transform="translate(422.625,491.625) scale(3.9483333333333)"><rect width="6" height="6"/></g>
<g transform="translate(560.625,491.625) scale(3.9483333333333)"><rect width="6" height="6"/></g>
<g transform="translate(606.625,491.625) scale(3.9483333333333)"><rect width="6" height="6"/></g>
<g transform="translate(629.625,491.625) scale(3.9483333333333)"><rect width="6" height="6"/></g>
<g transform="translate(652.625,491.625) scale(3.9483333333333)"><rect width="6" height="6"/></g>
<g transform="translate(675.625,491.625) scale(3.9483333333333)"><rect width="6" height="6"/></g>
<g transform="translate(721.625,491.625) scale(3.9483333333333)"><rect width="6" height="6"/></g>
<g transform="translate(744.625,491.625) scale(3.9483333333333)"><rect width="6" height="6"/></g>
<g transform="translate(767.625,491.625) scale(3.9483333333333)"><rect width="6" height="6"/></g>
<g transform="translate(215.625,514.625) scale(3.9483333333333)"><rect width="6" height="6"/></g>
<g transform="translate(238.625,514.625) scale(3.9483333333333)"><rect width="6" height="6"/></g>
<g transform="translate(261.625,514.625) scale(3.9483333333333)"><rect width="6" height="6"/></g>
<g transform="translate(307.625,514.625) scale(3.9483333333333)"><rect width="6" height="6"/></g>
<g transform="translate(330.625,514.625) scale(3.9483333333333)"><rect width="6" height="6"/></g>
<g transform="translate(376.625,514.625) scale(3.9483333333333)"><rect width="6" height="6"/></g>
<g transform="translate(399.625,514.625) scale(3.9483333333333)"><rect width="6" height="6"/></g>
<g transform="translate(491.625,514.625) scale(3.9483333333333)"><rect width="6" height="6"/></g>
<g transform="translate(514.625,514.625) scale(3.9483333333333)"><rect width="6" height="6"/></g>
<g transform="translate(583.625,514.625) scale(3.9483333333333)"><rect width="6" height="6"/></g>
<g transform="translate(606.625,514.625) scale(3.9483333333333)"><rect width="6" height="6"/></g>
<g transform="translate(652.625,514.625) scale(3.9483333333333)"><rect width="6" height="6"/></g>
<g transform="translate(698.625,514.625) scale(3.9483333333333)"><rect width="6" height="6"/></g>
<g transform="translate(744.625,514.625) scale(3.9483333333333)"><rect width="6" height="6"/></g>
<g transform="translate(215.625,537.625) scale(3.9483333333333)"><rect width="6" height="6"/></g>
<g transform="translate(284.625,537.625) scale(3.9483333333333)"><rect width="6" height="6"/></g>
<g transform="translate(307.625,537.625) scale(3.9483333333333)"><rect width="6" height="6"/></g>
<g transform="translate(330.625,537.625) scale(3.9483333333333)"><rect width="6" height="6"/></g>
<g transform="translate(353.625,537.625) scale(3.9483333333333)"><rect width="6" height="6"/></g>
<g transform="translate(422.625,537.625) scale(3.9483333333333)"><rect width="6" height="6"/></g>
<g transform="translate(445.625,537.625) scale(3.9483333333333)"><rect width="6" height="6"/></g>
<g transform="translate(514.625,537.625) scale(3.9483333333333)"><rect width="6" height="6"/></g>
<g transform="translate(537.625,537.625) scale(3.9483333333333)"><rect width="6" height="6"/></g>
<g transform="translate(560.625,537.625) scale(3.9483333333333)"><rect width="6" height="6"/></g>
<g transform="translate(629.625,537.625) scale(3.9483333333333)"><rect width="6" height="6"/></g>
<g transform="translate(652.625,537.625) scale(3.9483333333333)"><rect width="6" height="6"/></g>
<g transform="translate(675.625,537.625) scale(3.9483333333333)"><rect width="6" height="6"/></g>
<g transform="translate(698.625,537.625) scale(3.9483333333333)"><rect width="6" height="6"/></g>
<g transform="translate(744.625,537.625) scale(3.9483333333333)"><rect width="6" height="6"/></g>
<g transform="translate(767.625,537.625) scale(3.9483333333333)"><rect width="6" height="6"/></g>
<g transform="translate(215.625,560.625) scale(3.9483333333333)"><rect width="6" height="6"/></g>
<g transform="translate(261.625,560.625) scale(3.9483333333333)"><rect width="6" height="6"/></g>
<g transform="translate(284.625,560.625) scale(3.9483333333333)"><rect width="6" height="6"/></g>
<g transform="translate(399.625,560.625) scale(3.9483333333333)"><rect width="6" height="6"/></g>
<g transform="translate(445.625,560.625) scale(3.9483333333333)"><rect width="6" height="6"/></g>
<g transform="translate(491.625,560.625) scale(3.9483333333333)"><rect width="6" height="6"/></g>
<g transform="translate(514.625,560.625) scale(3.9483333333333)"><rect width="6" height="6"/></g>
<g transform="translate(583.625,560.625) scale(3.9483333333333)"><rect width="6" height="6"/></g>
<g transform="translate(629.625,560.625) scale(3.9483333333333)"><rect width="6" height="6"/></g>
<g transform="translate(652.625,560.625) scale(3.9483333333333)"><rect width="6" height="6"/></g>
<g transform="translate(675.625,560.625) scale(3.9483333333333)"><rect width="6" height="6"/></g>
<g transform="translate(767.625,560.625) scale(3.9483333333333)"><rect width="6" height="6"/></g>
<g transform="translate(215.625,583.625) scale(3.9483333333333)"><rect width="6" height="6"/></g>
<g transform="translate(307.625,583.625) scale(3.9483333333333)"><rect width="6" height="6"/></g>
<g transform="translate(330.625,583.625) scale(3.9483333333333)"><rect width="6" height="6"/></g>
<g transform="translate(353.625,583.625) scale(3.9483333333333)"><rect width="6" height="6"/></g>
<g transform="translate(376.625,583.625) scale(3.9483333333333)"><rect width="6" height="6"/></g>
<g transform="translate(399.625,583.625) scale(3.9483333333333)"><rect width="6" height="6"/></g>
<g transform="translate(445.625,583.625) scale(3.9483333333333)"><rect width="6" height="6"/></g>
<g transform="translate(491.625,583.625) scale(3.9483333333333)"><rect width="6" height="6"/></g>
<g transform="translate(537.625,583.625) scale(3.9483333333333)"><rect width="6" height="6"/></g>
<g transform="translate(583.625,583.625) scale(3.9483333333333)"><rect width="6" height="6"/></g>
<g transform="translate(606.625,583.625) scale(3.9483333333333)"><rect width="6" height="6"/></g>
<g transform="translate(629.625,583.625) scale(3.9483333333333)"><rect width="6" height="6"/></g>
<g transform="translate(652.625,583.625) scale(3.9483333333333)"><rect width="6" height="6"/></g>
<g transform="translate(675.625,583.625) scale(3.9483333333333)"><rect width="6" height="6"/></g>
<g transform="translate(721.625,583.625) scale(3.9483333333333)"><rect width="6" height="6"/></g>
<g transform="translate(399.625,606.625) scale(3.9483333333333)"><rect width="6" height="6"/></g>
<g transform="translate(445.625,606.625) scale(3.9483333333333)"><rect width="6" height="6"/></g>
<g transform="translate(560.625,606.625) scale(3.9483333333333)"><rect width="6" height="6"/></g>
<g transform="translate(583.625,606.625) scale(3.9483333333333)"><rect width="6" height="6"/></g>
<g transform="translate(675.625,606.625) scale(3.9483333333333)"><rect width="6" height="6"/></g>
<g transform="translate(698.625,606.625) scale(3.9483333333333)"><rect width="6" height="6"/></g>
<g transform="translate(422.625,629.625) scale(3.9483333333333)"><rect width="6" height="6"/></g>
<g transform="translate(468.625,629.625) scale(3.9483333333333)"><rect width="6" height="6"/></g>
<g transform="translate(491.625,629.625) scale(3.9483333333333)"><rect width="6" height="6"/></g>
<g transform="translate(583.625,629.625) scale(3.9483333333333)"><rect width="6" height="6"/></g>
<g transform="translate(629.625,629.625) scale(3.9483333333333)"><rect width="6" height="6"/></g>
<g transform="translate(675.625,629.625) scale(3.9483333333333)"><rect width="6" height="6"/></g>
<g transform="translate(721.625,629.625) scale(3.9483333333333)"><rect width="6" height="6"/></g>
<g transform="translate(744.625,629.625) scale(3.9483333333333)"><rect width="6" height="6"/></g>
<g transform="translate(767.625,629.625) scale(3.9483333333333)"><rect width="6" height="6"/></g>
<g transform="translate(399.625,652.625) scale(3.9483333333333)"><rect width="6" height="6"/></g>
<g transform="translate(468.625,652.625) scale(3.9483333333333)"><rect width="6" height="6"/></g>
<g transform="translate(537.625,652.625) scale(3.9483333333333)"><rect width="6" height="6"/></g>
<g transform="translate(583.625,652.625) scale(3.9483333333333)"><rect width="6" height="6"/></g>
<g transform="translate(675.625,652.625) scale(3.9483333333333)"><rect width="6" height="6"/></g>
<g transform="translate(698.625,652.625) scale(3.9483333333333)"><rect width="6" height="6"/></g>
<g transform="translate(767.625,652.625) scale(3.9483333333333)"><rect width="6" height="6"/></g>
<g transform="translate(399.625,675.625) scale(3.9483333333333)"><rect width="6" height="6"/></g>
<g transform="translate(445.625,675.625) scale(3.9483333333333)"><rect width="6" height="6"/></g>
<g transform="translate(468.625,675.625) scale(3.9483333333333)"><rect width="6" height="6"/></g>
<g transform="translate(560.625,675.625) scale(3.9483333333333)"><rect width="6" height="6"/></g>
<g transform="translate(583.625,675.625) scale(3.9483333333333)"><rect width="6" height="6"/></g>
<g transform="translate(606.625,675.625) scale(3.9483333333333)"><rect width="6" height="6"/></g>
<g transform="translate(629.625,675.625) scale(3.9483333333333)"><rect width="6" height="6"/></g>
<g transform="translate(652.625,675.625) scale(3.9483333333333)"><rect width="6" height="6"/></g>
<g transform="translate(675.625,675.625) scale(3.9483333333333)"><rect width="6" height="6"/></g>
<g transform="translate(721.625,675.625) scale(3.9483333333333)"><rect width="6" height="6"/></g>
<g transform="translate(744.625,675.625) scale(3.9483333333333)"><rect width="6" height="6"/></g>
<g transform="translate(767.625,675.625) scale(3.9483333333333)"><rect width="6" height="6"/></g>
<g transform="translate(399.625,698.625) scale(3.9483333333333)"><rect width="6" height="6"/></g>
<g transform="translate(491.625,698.625) scale(3.9483333333333)"><rect width="6" height="6"/></g>
<g transform="translate(514.625,698.625) scale(3.9483333333333)"><rect width="6" height="6"/></g>
<g transform="translate(537.625,698.625) scale(3.9483333333333)"><rect width="6" height="6"/></g>
<g transform="translate(606.625,698.625) scale(3.9483333333333)"><rect width="6" height="6"/></g>
<g transform="translate(629.625,698.625) scale(3.9483333333333)"><rect width="6" height="6"/></g>
<g transform="translate(675.625,698.625) scale(3.9483333333333)"><rect width="6" height="6"/></g>
<g transform="translate(698.625,698.625) scale(3.9483333333333)"><rect width="6" height="6"/></g>
<g transform="translate(721.625,698.625) scale(3.9483333333333)"><rect width="6" height="6"/></g>
<g transform="translate(744.625,698.625) scale(3.9483333333333)"><rect width="6" height="6"/></g>
<g transform="translate(767.625,698.625) scale(3.9483333333333)"><rect width="6" height="6"/></g>
<g transform="translate(399.625,721.625) scale(3.9483333333333)"><rect width="6" height="6"/></g>
<g transform="translate(422.625,721.625) scale(3.9483333333333)"><rect width="6" height="6"/></g>
<g transform="translate(445.625,721.625) scale(3.9483333333333)"><rect width="6" height="6"/></g>
<g transform="translate(514.625,721.625) scale(3.9483333333333)"><rect width="6" height="6"/></g>
<g transform="translate(537.625,721.625) scale(3.9483333333333)"><rect width="6" height="6"/></g>
<g transform="translate(560.625,721.625) scale(3.9483333333333)"><rect width="6" height="6"/></g>
<g transform="translate(698.625,721.625) scale(3.9483333333333)"><rect width="6" height="6"/></g>
<g transform="translate(721.625,721.625) scale(3.9483333333333)"><rect width="6" height="6"/></g>
<g transform="translate(767.625,721.625) scale(3.9483333333333)"><rect width="6" height="6"/></g>
<g transform="translate(491.625,744.625) scale(3.9483333333333)"><rect width="6" height="6"/></g>
<g transform="translate(514.625,744.625) scale(3.9483333333333)"><rect width="6" height="6"/></g>
<g transform="translate(560.625,744.625) scale(3.9483333333333)"><rect width="6" height="6"/></g>
<g transform="translate(583.625,744.625) scale(3.9483333333333)"><rect width="6" height="6"/></g>
<g transform="translate(606.625,744.625) scale(3.9483333333333)"><rect width="6" height="6"/></g>
<g transform="translate(652.625,744.625) scale(3.9483333333333)"><rect width="6" height="6"/></g>
<g transform="translate(675.625,744.625) scale(3.9483333333333)"><rect width="6" height="6"/></g>
<g transform="translate(698.625,744.625) scale(3.9483333333333)"><rect width="6" height="6"/></g>
<g transform="translate(767.625,744.625) scale(3.9483333333333)"><rect width="6" height="6"/></g>
<g transform="translate(399.625,767.625) scale(3.9483333333333)"><rect width="6" height="6"/></g>
<g transform="translate(491.625,767.625) scale(3.9483333333333)"><rect width="6" height="6"/></g>
<g transform="translate(537.625,767.625) scale(3.9483333333333)"><rect width="6" height="6"/></g>
<g transform="translate(629.625,767.625) scale(3.9483333333333)"><rect width="6" height="6"/></g>
<g transform="translate(652.625,767.625) scale(3.9483333333333)"><rect width="6" height="6"/></g>
<g transform="translate(675.625,767.625) scale(3.9483333333333)"><rect width="6" height="6"/></g>
<g transform="translate(698.625,767.625) scale(3.9483333333333)"><rect width="6" height="6"/></g>
<g transform="translate(721.625,767.625) scale(3.9483333333333)"><rect width="6" height="6"/></g>
<g transform="translate(744.625,767.625) scale(3.9483333333333)"><rect width="6" height="6"/></g>
<g transform="translate(767.625,767.625) scale(3.9483333333333)"><rect width="6" height="6"/></g>
<g transform="translate(215.625,215.625)"><g transform="scale(11.5)"><path d="M0,0v14h14V0H0z M12,12H2V2h10V12z"/></g></g>
<g transform="translate(629.625,215.625)"><g transform="scale(11.5)"><path d="M0,0v14h14V0H0z M12,12H2V2h10V12z"/></g></g>
<g transform="translate(215.625,629.625)"><g transform="scale(11.5)"><path d="M0,0v14h14V0H0z M12,12H2V2h10V12z"/></g></g>
<g transform="translate(261.625,261.625)"><g transform="scale(11.5)"><rect width="6" height="6"/></g></g>
<g transform="translate(675.625,261.625)"><g transform="scale(11.5)"><rect width="6" height="6"/></g></g>
<g transform="translate(261.625,675.625)"><g transform="scale(11.5)"><rect width="6" height="6"/></g></g>
</g></svg>
